<svg xmlns="http://www.w3.org/2000/svg" xmlns:xlink="http://www.w3.org/1999/xlink" width="500" zoomAndPan="magnify" viewBox="0 0 375 374.999991" height="500" preserveAspectRatio="xMidYMid meet" version="1.2"><defs><clipPath id="b2d7bed47f"><path d="M 55 8 L 317 8 L 317 369.496094 L 55 369.496094 Z M 55 8 "/></clipPath></defs><g id="49e500eac7"><path style=" stroke:none;fill-rule:nonzero;fill:#ffffff;fill-opacity:1;" d="M 209.28125 256.074219 C 208.441406 256.78125 195.617188 267.289062 184.53125 283.078125 C 179.308594 273.410156 169.640625 260.519531 153.464844 254.976562 C 150.113281 253.816406 146.441406 255.621094 145.28125 258.972656 C 144.121094 262.324219 145.925781 266 149.277344 267.160156 C 166.03125 272.894531 174.089844 290.167969 176.539062 296.417969 C 173.574219 302.285156 171.1875 308.535156 169.769531 315.109375 C 169.0625 318.589844 171.253906 322.007812 174.734375 322.78125 C 175.183594 322.910156 175.636719 322.910156 176.085938 322.910156 C 179.050781 322.910156 181.757812 320.847656 182.402344 317.816406 C 188.332031 289.84375 217.078125 266.320312 217.335938 266.128906 C 220.105469 263.871094 220.558594 259.8125 218.300781 257.039062 C 216.046875 254.269531 211.984375 253.816406 209.214844 256.074219 Z M 209.28125 256.074219 "/><path style=" stroke:none;fill-rule:nonzero;fill:#ffffff;fill-opacity:1;" d="M 162.035156 46.285156 C 165.582031 46.285156 168.480469 43.386719 168.480469 39.839844 L 168.480469 14.769531 C 168.480469 11.222656 165.582031 8.324219 162.035156 8.324219 C 158.492188 8.324219 155.589844 11.222656 155.589844 14.769531 L 155.589844 39.839844 C 155.589844 43.386719 158.492188 46.285156 162.035156 46.285156 Z M 162.035156 46.285156 "/><path style=" stroke:none;fill-rule:nonzero;fill:#ffffff;fill-opacity:1;" d="M 127.492188 55.566406 C 128.78125 56.855469 130.390625 57.433594 132.066406 57.433594 C 133.742188 57.433594 135.355469 56.789062 136.644531 55.566406 C 139.15625 53.050781 139.15625 48.992188 136.644531 46.480469 L 118.917969 28.753906 C 116.40625 26.242188 112.34375 26.242188 109.832031 28.753906 C 107.316406 31.269531 107.316406 35.328125 109.832031 37.84375 L 127.554688 55.566406 Z M 127.492188 55.566406 "/><path style=" stroke:none;fill-rule:nonzero;fill:#ffffff;fill-opacity:1;" d="M 193.359375 57.433594 C 195.035156 57.433594 196.648438 56.789062 197.9375 55.566406 L 215.660156 37.84375 C 218.171875 35.328125 218.171875 31.269531 215.660156 28.753906 C 213.144531 26.242188 209.085938 26.242188 206.574219 28.753906 L 188.847656 46.480469 C 186.335938 48.992188 186.335938 53.050781 188.847656 55.566406 C 190.136719 56.855469 191.75 57.433594 193.425781 57.433594 Z M 193.359375 57.433594 "/><g clip-rule="nonzero" clip-path="url(#b2d7bed47f)"><path style=" stroke:none;fill-rule:nonzero;fill:#ffffff;fill-opacity:1;" d="M 301.121094 217.273438 C 302.410156 184.46875 307.050781 43.578125 293 23.726562 C 284.363281 11.480469 268.769531 5.746094 254.265625 9.417969 C 241.890625 12.511719 233.578125 21.792969 232.09375 34.105469 C 229.902344 51.957031 230.933594 103.96875 231.578125 130.007812 C 225.972656 126.398438 219.976562 124.398438 213.46875 123.949219 C 199.289062 122.980469 187.109375 130.136719 180.921875 134.582031 C 169.320312 126.785156 158.296875 124.335938 148.179688 127.363281 C 138.964844 130.136719 132.582031 136.96875 128.457031 143.089844 C 124.914062 135.484375 120.402344 123.820312 116.921875 108.542969 C 112.214844 87.921875 100.9375 62.074219 84.375 57.304688 C 79.28125 55.824219 71.546875 55.757812 63.683594 63.621094 C 42.09375 85.214844 67.679688 166.808594 75.09375 181.179688 C 78.058594 186.917969 78.25 203.933594 78.445312 221.914062 C 78.765625 251.820312 79.21875 292.808594 91.976562 325.550781 C 103.257812 354.425781 132.261719 369.378906 173.636719 367.703125 C 186.527344 367.1875 200.320312 367.574219 218.367188 368.992188 C 221.074219 369.183594 223.78125 369.3125 226.359375 369.3125 C 255.554688 369.3125 277.789062 355.777344 301.378906 324.132812 C 332.832031 281.984375 306.601562 227.714844 300.992188 217.339844 Z M 244.855469 35.652344 C 246.082031 25.789062 254.007812 22.761719 257.425781 21.859375 C 265.03125 19.925781 276.113281 22.050781 282.496094 31.074219 C 290.679688 42.675781 291.003906 138.257812 288.554688 208.25 C 279.851562 203.996094 265.675781 198.066406 248.464844 194.007812 C 249.433594 171.125 245.5 147.730469 244.855469 144.121094 C 244.664062 137.417969 242.148438 57.433594 244.855469 35.585938 Z M 212.628906 136.773438 C 219.847656 137.289062 226.488281 141.09375 232.480469 147.859375 C 233.449219 153.660156 236.285156 172.867188 235.703125 191.558594 C 232.222656 190.976562 228.613281 190.527344 224.941406 190.203125 C 213.597656 189.238281 203.480469 188.65625 194.390625 188.59375 C 191.683594 170.804688 189.171875 152.757812 188.074219 145.28125 C 192.457031 142.058594 202.125 136 212.628906 136.710938 Z M 152.046875 139.675781 C 158.621094 137.742188 166.417969 139.933594 175.183594 146.25 C 176.152344 152.953125 178.664062 170.996094 181.371094 189.042969 C 168.609375 190.074219 158.75 192.910156 152.046875 198.648438 C 149.277344 201.03125 147.148438 203.933594 145.730469 207.089844 C 137.351562 197.679688 134.839844 172.15625 135.03125 158.109375 C 136.386719 154.820312 141.863281 142.640625 152.046875 139.609375 Z M 291.195312 316.398438 C 264.644531 351.910156 243.308594 357.96875 219.460938 356.101562 C 206.058594 355.070312 194.90625 354.554688 184.722656 354.554688 C 180.792969 354.554688 176.925781 354.617188 173.1875 354.8125 C 148.117188 355.777344 115.761719 350.6875 104.03125 320.78125 C 92.105469 290.296875 91.65625 252.269531 91.332031 221.722656 C 91.074219 199.613281 90.945312 183.695312 86.566406 175.1875 C 76.058594 154.886719 59.816406 85.664062 72.773438 72.710938 C 76.898438 68.585938 79.667969 69.359375 80.765625 69.679688 C 89.402344 72.195312 99.519531 90.113281 104.351562 111.378906 C 110.21875 137.355469 118.984375 153.597656 122.078125 158.753906 C 122.078125 169.449219 123.171875 211.539062 143.605469 221.527344 C 144.3125 227.78125 147.019531 233.320312 151.789062 237.703125 C 163.839844 248.726562 185.433594 249.949219 197.035156 248.144531 C 199.933594 247.695312 225.328125 244.085938 228.292969 257.683594 C 228.9375 260.714844 231.644531 262.777344 234.609375 262.777344 C 235.058594 262.777344 235.511719 262.777344 235.960938 262.648438 C 239.441406 261.875 241.632812 258.457031 240.859375 254.976562 C 236.671875 235.898438 214.433594 232.417969 194.972656 235.449219 C 185.820312 236.867188 168.480469 235.578125 160.425781 228.230469 C 157.265625 225.332031 155.914062 221.914062 156.234375 217.402344 C 156.492188 213.601562 157.78125 210.765625 160.425781 208.507812 C 170.542969 199.808594 198.128906 200.902344 223.714844 203.160156 C 256.328125 205.996094 283.269531 219.980469 289.777344 223.589844 C 294.289062 232.226562 317.75 280.886719 291.132812 316.464844 Z M 291.195312 316.398438 "/></g></g></svg>